<svg width="39" height="39" viewBox="0 0 39 39" fill="none" xmlns="http://www.w3.org/2000/svg">
<path d="M19.2899 0C7.11451 0 0 7.11502 0 19.2904C0 31.4664 7.11455 38.6237 19.2899 38.6237C31.4659 38.6237 38.5797 31.4664 38.5797 19.2904C38.5797 7.11502 31.4659 0 19.2899 0ZM19.2899 38.6237C8.65361 38.6237 0 29.9267 0 19.2904C0 8.65407 8.65357 0 19.2899 0C29.9262 0 38.5797 8.65412 38.5797 19.2904C38.5797 29.9266 29.9262 38.6237 19.2899 38.6237ZM27.0837 11.4967C26.5456 10.9586 25.6735 10.9586 25.1354 11.4967L19.2899 17.3422L13.4444 11.4967C12.9063 10.9586 12.0342 10.9586 11.4954 11.4967C10.9574 12.0347 10.9574 12.9069 11.4954 13.4449L17.3409 19.2905L11.4954 25.136C10.9574 25.6733 10.9574 26.5469 11.4954 27.0843C12.0335 27.6223 12.9056 27.6223 13.4444 27.0843L19.2899 21.2388L25.1354 27.0843C25.6735 27.6223 26.5456 27.6223 27.0837 27.0843C27.6217 26.5469 27.6217 25.6733 27.0837 25.136L21.2382 19.2905L27.0837 13.4449C27.6224 12.9062 27.6224 12.034 27.0837 11.4967Z" fill="#4F4F4F" fill-opacity="0.8"/>
</svg>
